<svg width="359" height="755" viewBox="0 0 359 755" fill="none" xmlns="http://www.w3.org/2000/svg">
<path d="M38.6309 -103.996C40.4916 -107.385 44.679 -108.506 47.9837 -106.499L515.72 177.454C519.025 179.46 520.195 183.834 518.335 187.223L367.174 462.522C365.273 465.985 360.109 463.83 360.932 459.917C381.242 363.373 301.349 273.663 206.888 286.945L112.128 300.269C24.4565 307.468 -61.9075 269.053 -118.519 197.676L-123.215 191.755C-123.408 191.511 -123.439 191.172 -123.291 190.902L38.6309 -103.996Z" fill="#BBDEFB"/>
<path d="M-104 -60.0803C-104 -63.9463 -100.866 -67.0803 -97 -67.0803H380C383.866 -67.0803 387 -63.9463 387 -60.0803V214.438C387 217.895 382.125 218.628 381.109 215.322C356.026 133.708 256.733 102.836 189.794 155.84L122.821 208.872C58.5685 254.192 -23.9747 264.703 -97.5343 236.932L-103.583 234.648C-103.834 234.554 -104 234.314 -104 234.046V-60.0803Z" fill="#1565C0"/>
<path d="M400.479 921.128C400.214 924.985 396.875 927.875 393.02 927.583L-83.6171 891.468C-87.4721 891.176 -90.3829 887.812 -90.1185 883.956L-71.3498 610.08C-71.113 606.625 -66.1943 606.261 -65.4042 609.64C-45.9069 693.026 51.0487 731.373 121.533 683.577L192.232 635.634C259.546 595.276 342.69 591.032 414.276 624.3L420.212 627.059C420.456 627.172 420.606 627.425 420.588 627.694L400.479 921.128Z" fill="#1565C0"/>
</svg>
