<svg width="64" height="64" viewBox="0 0 64 64" fill="none" xmlns="http://www.w3.org/2000/svg">
<g filter="url(#filter0_d_1_100)">
<rect x="9" y="9" width="40" height="40" rx="5" fill="white"/>
</g>
<path d="M38.8055 27.0415H38V27H29V31H34.6515C33.827 33.3285 31.6115 35 29 35C25.6865 35 23 32.3135 23 29C23 25.6865 25.6865 23 29 23C30.5295 23 31.921 23.577 32.9805 24.5195L35.809 21.691C34.023 20.0265 31.634 19 29 19C23.4775 19 19 23.4775 19 29C19 34.5225 23.4775 39 29 39C34.5225 39 39 34.5225 39 29C39 28.3295 38.931 27.675 38.8055 27.0415Z" fill="#FFC107"/>
<path d="M20 24.5144L23.3577 27C24.2662 24.7295 26.4665 23.1264 29.0414 23.1264C30.6045 23.1264 32.0266 23.7216 33.1094 24.6939L36 21.776C34.1748 20.0589 31.7333 19 29.0414 19C25.116 19 21.7118 21.237 20 24.5144Z" fill="#FF3D00"/>
<path d="M29.1267 39C31.7747 39 34.1808 38.0082 36 36.3952L32.8271 33.7673C31.7632 34.5592 30.4632 34.9875 29.1267 34.9865C26.4602 34.9865 24.1961 33.3223 23.3431 31L20 33.521C21.6967 36.7705 25.1423 39 29.1267 39Z" fill="#4CAF50"/>
<path d="M37.8055 27.0441H37V27H28V31.2489H33.6515C33.2571 32.4261 32.5467 33.4548 31.608 34.2078L31.6095 34.2067L34.7045 36.9887C34.4855 37.2001 38 34.4356 38 29.1245C38 28.4122 37.931 27.717 37.8055 27.0441Z" fill="#1976D2"/>
<defs>
<filter id="filter0_d_1_100" x="0" y="0" width="64" height="64" filterUnits="userSpaceOnUse" color-interpolation-filters="sRGB">
<feFlood flood-opacity="0" result="BackgroundImageFix"/>
<feColorMatrix in="SourceAlpha" type="matrix" values="0 0 0 0 0 0 0 0 0 0 0 0 0 0 0 0 0 0 127 0" result="hardAlpha"/>
<feOffset dx="3" dy="3"/>
<feGaussianBlur stdDeviation="6"/>
<feColorMatrix type="matrix" values="0 0 0 0 0 0 0 0 0 0 0 0 0 0 0 0 0 0 0.15 0"/>
<feBlend mode="normal" in2="BackgroundImageFix" result="effect1_dropShadow_1_100"/>
<feBlend mode="normal" in="SourceGraphic" in2="effect1_dropShadow_1_100" result="shape"/>
</filter>
</defs>
</svg>
