<svg width="198" height="233" viewBox="0 0 198 233" fill="none" xmlns="http://www.w3.org/2000/svg">
<path d="M41.568 124.34C41.664 124.028 41.832 123.8 42.072 123.656C42.312 123.488 42.576 123.404 42.864 123.404C43.248 123.404 43.572 123.524 43.836 123.764C44.124 123.98 44.268 124.28 44.268 124.664C44.268 124.832 44.232 125.024 44.16 125.24L36.024 148.172C35.904 148.508 35.7 148.772 35.412 148.964C35.124 149.132 34.8 149.216 34.44 149.216C34.104 149.216 33.792 149.132 33.504 148.964C33.216 148.772 33.012 148.508 32.892 148.172L25.836 128.228L18.708 148.172C18.588 148.508 18.384 148.772 18.096 148.964C17.808 149.132 17.496 149.216 17.16 149.216C16.824 149.216 16.512 149.132 16.224 148.964C15.936 148.772 15.732 148.508 15.612 148.172L7.44 125.24C7.368 125.048 7.332 124.868 7.332 124.7C7.332 124.316 7.476 124.004 7.764 123.764C8.076 123.524 8.424 123.404 8.808 123.404C9.096 123.404 9.36 123.488 9.6 123.656C9.864 123.8 10.044 124.028 10.14 124.34L17.232 144.788L24.432 124.556C24.552 124.196 24.744 123.932 25.008 123.764C25.272 123.572 25.56 123.476 25.872 123.476C26.184 123.476 26.472 123.572 26.736 123.764C27 123.956 27.192 124.232 27.312 124.592L34.404 144.86L41.568 124.34ZM56.4664 149.288C54.6664 149.288 52.9384 149.024 51.2824 148.496C49.6504 147.944 48.3424 147.212 47.3584 146.3C46.9984 145.964 46.8184 145.544 46.8184 145.04C46.8184 144.704 46.9144 144.416 47.1064 144.176C47.2984 143.912 47.5264 143.78 47.7904 143.78C48.1024 143.78 48.4384 143.912 48.7984 144.176C51.0304 145.904 53.5744 146.768 56.4304 146.768C58.4944 146.768 60.0784 146.372 61.1824 145.58C62.2864 144.788 62.8384 143.66 62.8384 142.196C62.8384 141.356 62.5744 140.684 62.0464 140.18C61.5184 139.652 60.8224 139.232 59.9584 138.92C59.0944 138.608 57.9304 138.284 56.4664 137.948C54.4984 137.492 52.8784 137.012 51.6064 136.508C50.3584 136.004 49.3384 135.284 48.5464 134.348C47.7784 133.412 47.3944 132.188 47.3944 130.676C47.3944 129.236 47.7784 127.964 48.5464 126.86C49.3384 125.732 50.4304 124.868 51.8224 124.268C53.2384 123.644 54.8464 123.332 56.6464 123.332C58.3264 123.332 59.8864 123.596 61.3264 124.124C62.7904 124.628 64.0144 125.36 64.9984 126.32C65.3824 126.704 65.5744 127.124 65.5744 127.58C65.5744 127.916 65.4784 128.216 65.2864 128.48C65.0944 128.72 64.8664 128.84 64.6024 128.84C64.3384 128.84 63.9904 128.708 63.5584 128.444C62.3824 127.484 61.2904 126.812 60.2824 126.428C59.2744 126.044 58.0624 125.852 56.6464 125.852C54.6544 125.852 53.1064 126.272 52.0024 127.112C50.8984 127.928 50.3464 129.08 50.3464 130.568C50.3464 131.84 50.8264 132.8 51.7864 133.448C52.7704 134.072 54.2704 134.624 56.2864 135.104C58.4704 135.632 60.1864 136.124 61.4344 136.58C62.6824 137.012 63.7144 137.672 64.5304 138.56C65.3704 139.448 65.7904 140.636 65.7904 142.124C65.7904 143.54 65.3944 144.788 64.6024 145.868C63.8344 146.948 62.7424 147.788 61.3264 148.388C59.9104 148.988 58.2904 149.288 56.4664 149.288ZM89.9531 147.164C90.1211 147.428 90.2051 147.704 90.2051 147.992C90.2051 148.352 90.0611 148.652 89.7731 148.892C89.5091 149.108 89.1971 149.216 88.8371 149.216C88.2851 149.216 87.8531 148.976 87.5411 148.496L82.7171 140.864C82.0931 139.88 81.4451 139.208 80.7731 138.848C80.1011 138.464 79.1891 138.272 78.0371 138.272H73.5011V147.668C73.5011 148.124 73.3691 148.496 73.1051 148.784C72.8411 149.048 72.4931 149.18 72.0611 149.18C71.6051 149.18 71.2451 149.048 70.9811 148.784C70.7171 148.496 70.5851 148.124 70.5851 147.668V125.06C70.5851 124.628 70.7171 124.28 70.9811 124.016C71.2691 123.752 71.6411 123.62 72.0971 123.62H81.0251C83.7851 123.62 85.8851 124.232 87.3251 125.456C88.7891 126.68 89.5211 128.48 89.5211 130.856C89.5211 132.872 88.9331 134.492 87.7571 135.716C86.6051 136.94 84.9491 137.684 82.7891 137.948C83.3891 138.14 83.9291 138.452 84.4091 138.884C84.8891 139.316 85.3691 139.916 85.8491 140.684L89.9531 147.164ZM80.7731 135.824C82.7411 135.824 84.2051 135.416 85.1651 134.6C86.1491 133.784 86.6411 132.548 86.6411 130.892C86.6411 129.26 86.1611 128.048 85.2011 127.256C84.2411 126.464 82.7651 126.068 80.7731 126.068H73.5011V135.824H80.7731ZM19.896 198.288C17.496 198.288 15.42 197.772 13.668 196.74C11.916 195.684 10.56 194.184 9.6 192.24C8.664 190.272 8.196 187.956 8.196 185.292C8.196 182.652 8.664 180.36 9.6 178.416C10.56 176.448 11.916 174.948 13.668 173.916C15.42 172.86 17.496 172.332 19.896 172.332C21.504 172.332 23.016 172.596 24.432 173.124C25.872 173.628 27.12 174.36 28.176 175.32C28.56 175.68 28.752 176.1 28.752 176.58C28.752 176.916 28.656 177.216 28.464 177.48C28.272 177.72 28.044 177.84 27.78 177.84C27.492 177.84 27.144 177.708 26.736 177.444C25.512 176.484 24.396 175.812 23.388 175.428C22.404 175.044 21.264 174.852 19.968 174.852C17.184 174.852 15.036 175.764 13.524 177.588C12.036 179.388 11.292 181.956 11.292 185.292C11.292 188.652 12.036 191.244 13.524 193.068C15.036 194.868 17.184 195.768 19.968 195.768C21.24 195.768 22.38 195.576 23.388 195.192C24.396 194.808 25.512 194.136 26.736 193.176C27.144 192.912 27.492 192.78 27.78 192.78C28.044 192.78 28.272 192.9 28.464 193.14C28.656 193.38 28.752 193.68 28.752 194.04C28.752 194.52 28.56 194.94 28.176 195.3C27.12 196.26 25.872 197.004 24.432 197.532C23.016 198.036 21.504 198.288 19.896 198.288ZM39.9837 198.252C38.3277 198.252 36.8637 197.88 35.5917 197.136C34.3437 196.392 33.3717 195.336 32.6757 193.968C32.0037 192.576 31.6677 190.968 31.6677 189.144C31.6677 187.32 32.0037 185.724 32.6757 184.356C33.3717 182.964 34.3437 181.896 35.5917 181.152C36.8637 180.408 38.3277 180.036 39.9837 180.036C41.6397 180.036 43.1037 180.408 44.3757 181.152C45.6477 181.896 46.6197 182.964 47.2917 184.356C47.9877 185.724 48.3357 187.32 48.3357 189.144C48.3357 190.968 47.9877 192.576 47.2917 193.968C46.6197 195.336 45.6477 196.392 44.3757 197.136C43.1037 197.88 41.6397 198.252 39.9837 198.252ZM39.9837 195.84C41.7117 195.84 43.0317 195.276 43.9437 194.148C44.8797 192.996 45.3477 191.328 45.3477 189.144C45.3477 187.008 44.8797 185.364 43.9437 184.212C43.0077 183.036 41.6877 182.448 39.9837 182.448C38.2797 182.448 36.9597 183.036 36.0237 184.212C35.0877 185.364 34.6197 187.008 34.6197 189.144C34.6197 191.304 35.0757 192.96 35.9877 194.112C36.9237 195.264 38.2557 195.84 39.9837 195.84ZM61.5005 180.036C65.7005 180.036 67.8005 182.352 67.8005 186.984V196.74C67.8005 197.196 67.6685 197.556 67.4045 197.82C67.1645 198.06 66.8165 198.18 66.3605 198.18C65.9045 198.18 65.5445 198.06 65.2805 197.82C65.0165 197.556 64.8845 197.196 64.8845 196.74V187.164C64.8845 185.532 64.5605 184.344 63.9125 183.6C63.2885 182.856 62.2805 182.484 60.8885 182.484C59.2805 182.484 57.9965 182.976 57.0365 183.96C56.0765 184.944 55.5965 186.276 55.5965 187.956V196.74C55.5965 197.196 55.4645 197.556 55.2005 197.82C54.9605 198.06 54.6125 198.18 54.1565 198.18C53.7005 198.18 53.3405 198.06 53.0765 197.82C52.8125 197.556 52.6805 197.196 52.6805 196.74V181.548C52.6805 181.116 52.8125 180.768 53.0765 180.504C53.3405 180.24 53.7005 180.108 54.1565 180.108C54.5885 180.108 54.9245 180.24 55.1645 180.504C55.4285 180.768 55.5605 181.104 55.5605 181.512V183.348C56.1365 182.268 56.9405 181.452 57.9725 180.9C59.0045 180.324 60.1805 180.036 61.5005 180.036ZM81.9614 180.036C86.1614 180.036 88.2614 182.352 88.2614 186.984V196.74C88.2614 197.196 88.1294 197.556 87.8654 197.82C87.6254 198.06 87.2774 198.18 86.8214 198.18C86.3654 198.18 86.0054 198.06 85.7414 197.82C85.4774 197.556 85.3454 197.196 85.3454 196.74V187.164C85.3454 185.532 85.0214 184.344 84.3734 183.6C83.7494 182.856 82.7414 182.484 81.3494 182.484C79.7414 182.484 78.4574 182.976 77.4974 183.96C76.5374 184.944 76.0574 186.276 76.0574 187.956V196.74C76.0574 197.196 75.9254 197.556 75.6614 197.82C75.4214 198.06 75.0734 198.18 74.6174 198.18C74.1614 198.18 73.8014 198.06 73.5374 197.82C73.2734 197.556 73.1414 197.196 73.1414 196.74V181.548C73.1414 181.116 73.2734 180.768 73.5374 180.504C73.8014 180.24 74.1614 180.108 74.6174 180.108C75.0494 180.108 75.3854 180.24 75.6254 180.504C75.8894 180.768 76.0214 181.104 76.0214 181.512V183.348C76.5974 182.268 77.4014 181.452 78.4334 180.9C79.4654 180.324 80.6414 180.036 81.9614 180.036ZM107.174 193.932C107.438 193.932 107.666 194.04 107.858 194.256C108.05 194.472 108.146 194.748 108.146 195.084C108.146 195.684 107.726 196.236 106.886 196.74C106.022 197.244 105.11 197.628 104.15 197.892C103.19 198.132 102.254 198.252 101.342 198.252C98.6303 198.252 96.4823 197.448 94.8983 195.84C93.3383 194.232 92.5583 192.012 92.5583 189.18C92.5583 187.38 92.9063 185.796 93.6023 184.428C94.2983 183.036 95.2703 181.956 96.5183 181.188C97.7903 180.42 99.2303 180.036 100.838 180.036C103.118 180.036 104.93 180.78 106.274 182.268C107.618 183.756 108.29 185.772 108.29 188.316C108.29 188.796 108.194 189.144 108.002 189.36C107.81 189.576 107.498 189.684 107.066 189.684H95.4743C95.6903 193.812 97.6463 195.876 101.342 195.876C102.278 195.876 103.082 195.756 103.754 195.516C104.426 195.252 105.146 194.904 105.914 194.472C106.538 194.112 106.958 193.932 107.174 193.932ZM100.874 182.304C99.3383 182.304 98.1023 182.784 97.1663 183.744C96.2543 184.704 95.7143 186.06 95.5463 187.812H105.734C105.686 186.036 105.242 184.68 104.402 183.744C103.562 182.784 102.386 182.304 100.874 182.304ZM119.823 198.252C118.191 198.252 116.739 197.88 115.467 197.136C114.219 196.392 113.247 195.336 112.551 193.968C111.879 192.6 111.543 191.016 111.543 189.216C111.543 187.416 111.891 185.82 112.587 184.428C113.307 183.036 114.303 181.956 115.575 181.188C116.847 180.42 118.311 180.036 119.967 180.036C120.879 180.036 121.779 180.168 122.667 180.432C123.579 180.672 124.371 181.032 125.043 181.512C125.475 181.8 125.775 182.088 125.943 182.376C126.135 182.64 126.231 182.94 126.231 183.276C126.231 183.612 126.135 183.888 125.943 184.104C125.775 184.32 125.547 184.428 125.259 184.428C125.091 184.428 124.911 184.38 124.719 184.284C124.527 184.188 124.359 184.092 124.215 183.996C124.095 183.9 124.011 183.84 123.963 183.816C123.339 183.408 122.739 183.084 122.163 182.844C121.611 182.604 120.927 182.484 120.111 182.484C118.359 182.484 116.991 183.084 116.007 184.284C115.047 185.46 114.567 187.104 114.567 189.216C114.567 191.328 115.047 192.96 116.007 194.112C116.991 195.264 118.359 195.84 120.111 195.84C120.927 195.84 121.623 195.72 122.199 195.48C122.799 195.24 123.399 194.916 123.999 194.508C124.263 194.34 124.515 194.196 124.755 194.076C124.995 193.956 125.199 193.896 125.367 193.896C125.631 193.896 125.847 194.004 126.015 194.22C126.207 194.436 126.303 194.712 126.303 195.048C126.303 195.36 126.219 195.648 126.051 195.912C125.883 196.152 125.571 196.428 125.115 196.74C124.443 197.196 123.627 197.568 122.667 197.856C121.731 198.12 120.783 198.252 119.823 198.252ZM137.948 195.876C138.788 195.948 139.208 196.332 139.208 197.028C139.208 197.436 139.052 197.748 138.74 197.964C138.452 198.156 138.008 198.228 137.408 198.18L136.436 198.108C134.516 197.964 133.1 197.388 132.188 196.38C131.276 195.372 130.82 193.848 130.82 191.808V182.772H128.408C128 182.772 127.676 182.676 127.436 182.484C127.22 182.268 127.112 181.992 127.112 181.656C127.112 181.296 127.22 181.008 127.436 180.792C127.676 180.576 128 180.468 128.408 180.468H130.82V176.4C130.82 175.944 130.952 175.596 131.216 175.356C131.48 175.092 131.84 174.96 132.296 174.96C132.728 174.96 133.076 175.092 133.34 175.356C133.604 175.596 133.736 175.944 133.736 176.4V180.468H137.732C138.116 180.468 138.416 180.576 138.632 180.792C138.872 181.008 138.992 181.296 138.992 181.656C138.992 181.992 138.872 182.268 138.632 182.484C138.416 182.676 138.116 182.772 137.732 182.772H133.736V191.952C133.736 193.272 134 194.232 134.528 194.832C135.08 195.408 135.896 195.732 136.976 195.804L137.948 195.876Z" fill="#1565C0"/>
<path d="M58.3684 83V76.5L71 64.8L67.2105 57L65.9474 47.9L69.7368 32.3L64.6842 27.1L68.4737 18L56.3158 23.3625L23 53.1V83H58.3684Z" fill="#42A5F5"/>
<path d="M19 1H58V63H19V1Z" fill="#0D47A1"/>
<path d="M64.7281 57.6555L54.711 64.5941C53.8943 65.1598 53.3144 66.05 53.0956 67.074C52.8769 68.0979 53.0367 69.1741 53.5408 70.0717C54.0303 70.9433 54.8073 71.5803 55.7139 71.8534C56.6206 72.1265 57.5892 72.0153 58.423 71.5422L68.9377 65.5767C69.39 65.32 69.7907 64.9683 70.1163 64.5419C70.442 64.1155 70.6861 63.623 70.8343 63.0932C70.9826 62.5634 71.0321 62.0068 70.9799 61.4561C70.9277 60.9053 70.7748 60.3713 70.5303 59.8853L70.1716 59.1722C69.9191 58.6704 69.5742 58.2302 69.1582 57.8791C68.7423 57.528 68.2642 57.2734 67.7537 57.1311C67.2431 56.9889 66.7111 56.962 66.1906 57.0522C65.6701 57.1424 65.1723 57.3478 64.7281 57.6555Z" fill="#64B5F6"/>
<path d="M65.7494 40.0691L59.5161 51.0826C59.0078 51.9807 58.8683 53.0441 59.1273 54.0449C59.3863 55.0457 60.0232 55.9041 60.9016 56.4363C61.7546 56.9531 62.7703 57.1228 63.7426 56.9111C64.7149 56.6994 65.5711 56.122 66.1373 55.2962L73.2771 44.8824C73.5844 44.4344 73.8002 43.929 73.912 43.3958C74.0237 42.8627 74.0291 42.3123 73.9279 41.777C73.8267 41.2417 73.621 40.7321 73.3226 40.2779C73.0242 39.8238 72.6392 39.4343 72.1901 39.132L71.5315 38.6885C71.0678 38.3765 70.5454 38.1642 69.997 38.0647C69.4485 37.9652 68.8857 37.9806 68.3434 38.1101C67.8011 38.2396 67.2909 38.4803 66.8447 38.8173C66.3985 39.1543 66.0256 39.5804 65.7494 40.0691Z" fill="#64B5F6"/>
<path opacity="0.3" d="M21 1L57 61V1H21Z" fill="#E3F2FD"/>
<path d="M61.7494 28.068L55.5161 39.0827C55.0078 39.9808 54.8683 41.0442 55.1273 42.0449C55.3863 43.0457 56.0232 43.9042 56.9016 44.4363C57.7546 44.9531 58.7703 45.1228 59.7426 44.9111C60.7149 44.6994 61.5711 44.122 62.1373 43.2962L69.2771 32.8827C69.5844 32.4346 69.8002 31.9293 69.912 31.3961C70.0237 30.863 70.0291 30.3126 69.9279 29.7773C69.8267 29.242 69.621 28.7324 69.3226 28.2783C69.0242 27.8242 68.6392 27.4346 68.1901 27.1324L67.5315 26.6889C67.0679 26.3769 66.5456 26.1644 65.9972 26.0648C65.4488 25.9652 64.886 25.9805 64.3437 26.1099C63.8014 26.2392 63.2913 26.4798 62.845 26.8167C62.3987 27.1535 62.0258 27.5795 61.7494 28.068Z" fill="#64B5F6"/>
<path d="M61.7495 12.0678L55.5161 23.0826C55.0078 23.9807 54.8683 25.0441 55.1273 26.0449C55.3863 27.0457 56.0233 27.9041 56.9017 28.4363C57.7546 28.9531 58.7703 29.1228 59.7427 28.9111C60.715 28.6994 61.5712 28.122 62.1374 27.2962L69.2773 16.8824C69.5845 16.4344 69.8002 15.9292 69.912 15.3961C70.0237 14.863 70.0291 14.3128 69.928 13.7776C69.8268 13.2423 69.6211 12.7328 69.3229 12.2787C69.0246 11.8247 68.6398 11.4351 68.1908 11.1328L67.5322 10.6894C67.0686 10.3772 66.5463 10.1646 65.9979 10.0649C65.4494 9.96522 64.8865 9.98049 64.3442 10.1098C63.8019 10.2391 63.2916 10.4796 62.8453 10.8164C62.3989 11.1533 62.0259 11.5792 61.7495 12.0678Z" fill="#64B5F6"/>
<path d="M53 14H41.75L38 18V6H53V14Z" fill="#1E88E5"/>
<path d="M40 32C42.7614 32 45 29.7614 45 27C45 24.2386 42.7614 22 40 22C37.2386 22 35 24.2386 35 27C35 29.7614 37.2386 32 40 32Z" fill="#64B5F6"/>
<path d="M52 55V47.1079C52 41.5254 46.6924 37 42.3846 37H36.6154C32.3076 37 27 41.5254 27 47.1079V55H52Z" fill="#E3F2FD"/>
<path d="M23 6H32V15H23V6Z" fill="#E3F2FD"/>
<path d="M23 83V73.8696L8 59.5217V23C19.25 23 19.25 33.4348 19.25 33.4348V50.3913C38 52.837 43 69.9565 43 69.9565V83H23Z" fill="#64B5F6"/>
<path d="M52.7143 5H37.2857C36.9447 5 36.6177 5.13409 36.3766 5.37277C36.1355 5.61145 36 5.93518 36 6.27272V17.7272C36 17.979 36.0754 18.225 36.2167 18.4343C36.3579 18.6436 36.5587 18.8068 36.7937 18.9031C37.0286 18.9994 37.2871 19.0247 37.5366 18.9755C37.786 18.9264 38.0151 18.8052 38.1949 18.6272L41.6753 15.1818H52.7143C53.0553 15.1818 53.3823 15.0477 53.6234 14.809C53.8645 14.5703 54 14.2466 54 13.9091V6.27272C54 5.93518 53.8645 5.61145 53.6234 5.37277C53.3823 5.13409 53.0553 5 52.7143 5ZM51.4286 12.6363H41.1429C40.974 12.6363 40.8068 12.6692 40.6508 12.7332C40.4948 12.7972 40.3531 12.8909 40.2337 13.0091L38.5714 14.6547V7.54545H51.4286V12.6363Z" fill="black" fill-opacity="0.04"/>
<path d="M39 34C40.1867 34 41.3467 33.6188 42.3334 32.9046C43.3201 32.1903 44.0892 31.1752 44.5433 29.9874C44.9974 28.7997 45.1162 27.4928 44.8847 26.2319C44.6532 24.971 44.0818 23.8129 43.2426 22.9038C42.4035 21.9948 41.3344 21.3757 40.1705 21.1249C39.0067 20.8741 37.8003 21.0028 36.7039 21.4948C35.6075 21.9868 34.6705 22.8199 34.0112 23.8888C33.3519 24.9577 33 26.2144 33 27.5C33.0018 29.2233 33.6345 30.8755 34.7593 32.094C35.8842 33.3126 37.4093 33.998 39 34ZM39 23.6811C39.6972 23.6811 40.3787 23.905 40.9584 24.3246C41.538 24.7442 41.9899 25.3406 42.2567 26.0384C42.5235 26.7362 42.5933 27.504 42.4573 28.2448C42.3213 28.9855 41.9856 29.666 41.4926 30.2C40.9996 30.7341 40.3716 31.0978 39.6878 31.2452C39.004 31.3926 38.2953 31.317 37.6511 31.028C37.007 30.7389 36.4565 30.2495 36.0691 29.6215C35.6818 28.9936 35.475 28.2553 35.475 27.5C35.476 26.4875 35.8477 25.5168 36.5086 24.8009C37.1694 24.085 38.0654 23.6822 39 23.6811Z" fill="black" fill-opacity="0.04"/>
<path d="M42.9372 35H37.0628C32.052 35 26 40.0122 26 46.2368H28.544C28.544 41.579 33.228 37.5877 37.0628 37.5877H42.9372C47.525 37.5877 51.456 42.3435 51.456 46.2368V54H54V46.2368C54 40.0124 47.948 35 42.9372 35Z" fill="black" fill-opacity="0.04"/>
<path d="M32 15.6667V6.33333C32 5.97971 31.8712 5.64057 31.642 5.39052C31.4128 5.14048 31.1019 5 30.7778 5H22.2222C21.8981 5 21.5872 5.14048 21.358 5.39052C21.1288 5.64057 21 5.97971 21 6.33333V15.6667C21 16.0203 21.1288 16.3594 21.358 16.6095C21.5872 16.8595 21.8981 17 22.2222 17H30.7778C31.1019 17 31.4128 16.8595 31.642 16.6095C31.8712 16.3594 32 16.0203 32 15.6667ZM29.5556 14.3333H23.4444V7.66667H29.5556V14.3333Z" fill="black" fill-opacity="0.04"/>
<path d="M56.9392 0H18.4242C18.0947 0 17.7787 0.136635 17.5457 0.379846C17.3127 0.623057 17.1818 0.952922 17.1818 1.29688V26.449C15.4837 24.1999 12.4887 22.0469 7.24242 22.0469C6.91291 22.0469 6.5969 22.1835 6.3639 22.4267C6.1309 22.6699 6 22.9998 6 23.3438V59.6562C5.99994 59.8361 6.03572 60.014 6.10507 60.1787C6.17443 60.3433 6.27583 60.4911 6.40285 60.6127L20.909 74.4923V83H23.3939V73.9219C23.3939 73.742 23.3582 73.5641 23.2888 73.3994C23.2194 73.2348 23.118 73.087 22.991 72.9654L8.48484 59.0858V24.6893C11.9489 24.967 14.4393 26.442 15.8984 29.0845C16.6633 30.5051 17.1026 32.0913 17.1818 33.7188V50.5781C17.1818 50.8942 17.2924 51.1994 17.4928 51.4364C17.6932 51.6734 17.9696 51.8258 18.2701 51.8649C25.635 52.8259 31.6643 56.2211 36.1902 61.9563C39.5953 66.2711 40.8301 70.3697 40.8422 70.4112L43.2184 69.6532C43.1827 69.5307 42.5903 67.5458 41.1084 64.8438H51.9061C51.3774 65.6294 51.0659 66.5517 51.0055 67.5097C50.9451 68.4678 51.1382 69.4247 51.5637 70.2759C51.9893 71.1271 52.6308 71.8398 53.4183 72.3361C54.2057 72.8323 55.1087 73.093 56.0285 73.0896C56.8357 73.09 57.631 72.8859 58.3461 72.4948L60.7714 71.1704L56.1077 75.5517C55.9783 75.6734 55.8749 75.822 55.8041 75.9881C55.7333 76.1541 55.6967 76.3339 55.6968 76.5156V83H58.1816V77.0932L69.9791 66.01C70.9014 65.2113 71.5291 64.1029 71.7548 62.8744C71.9805 61.6459 71.7901 60.3737 71.2163 59.2756L70.8502 58.5755C70.4122 57.7345 69.7669 57.0309 68.981 56.5376C68.1951 56.0442 67.2972 55.779 66.3802 55.7694L73.0821 45.6644C73.4724 45.0757 73.7465 44.4118 73.8883 43.7114C74.0302 43.0109 74.037 42.288 73.9083 41.5848C73.7796 40.8816 73.5181 40.2122 73.1389 39.6156C72.7598 39.019 72.2706 38.5072 71.6999 38.1101L71.0641 37.6677C69.9881 36.9221 68.6841 36.6226 67.4077 36.8278L69.259 34.0363C69.6494 33.4476 69.9236 32.7836 70.0655 32.0831C70.2074 31.3826 70.2142 30.6595 70.0855 29.9562C69.9569 29.253 69.6953 28.5834 69.3161 27.9868C68.9369 27.3902 68.4476 26.8783 67.8768 26.4812L67.241 26.0388C66.4311 25.4769 65.486 25.1643 64.5139 25.1367L69.2585 17.9828C69.649 17.3941 69.9231 16.7301 70.065 16.0295C70.2069 15.329 70.2137 14.606 70.0851 13.9027C69.9564 13.1994 69.6948 12.5299 69.3156 11.9333C68.9364 11.3366 68.4471 10.8248 67.8764 10.4277L67.2419 9.98432C66.6526 9.57423 65.9889 9.29502 65.2918 9.16405C64.5948 9.03308 63.8794 9.05315 63.1901 9.223C62.5008 9.39285 61.8523 9.70886 61.2849 10.1514C60.7176 10.5939 60.2435 11.1535 59.8921 11.7954L58.1816 14.9199V1.29688C58.1816 0.952922 58.0507 0.623057 57.8177 0.379846C57.5847 0.136635 57.2687 0 56.9392 0V0ZM38.1776 60.3956C34.8998 56.2118 29.0607 50.9996 19.6666 49.4518V2.59375H55.6968V19.4591L53.8744 22.788C53.2298 23.9805 53.0548 25.388 53.3864 26.7127C53.718 28.0375 54.5303 29.1756 55.6514 29.8865C56.429 30.3741 57.3191 30.6313 58.2262 30.6306C58.2748 30.6306 58.3232 30.6275 58.3718 30.626L53.8744 38.8414C53.2298 40.0339 53.0548 41.4413 53.3864 42.7661C53.718 44.0908 54.5303 45.229 55.6514 45.9398C55.6669 45.9493 55.6825 45.9561 55.6968 45.966V61.84L55.0816 62.25H39.5262C39.1168 61.6437 38.6689 61.0228 38.1776 60.3956ZM58.1816 56.4001C58.9249 57.3519 59.9678 57.9974 61.1244 58.2216L58.1816 60.1834V56.4001ZM58.1816 49.5852V46.6825C58.1971 46.6825 58.2113 46.6839 58.2262 46.6839C58.811 46.6834 59.3913 46.5774 59.9415 46.3704L58.1816 49.5852ZM66.9831 58.4482C67.3397 58.5422 67.6737 58.7125 67.964 58.9483C68.2542 59.1842 68.4943 59.4805 68.669 59.8184L69.0351 60.5185C69.3176 61.0586 69.4215 61.6808 69.3308 62.2888C69.2401 62.8968 68.9597 63.4565 68.5333 63.8813L68.5322 63.8802L68.3663 64.0361C68.2288 64.1515 68.0808 64.2526 67.9245 64.338L57.1947 70.1969C56.6148 70.5138 55.9401 70.5846 55.3114 70.3947C54.6827 70.2048 54.1486 69.7688 53.8205 69.1776C53.4923 68.5865 53.3956 67.886 53.5504 67.2222C53.7052 66.5584 54.0996 65.9826 54.6513 65.6151L64.8734 58.8005C65.1825 58.5924 65.5296 58.4536 65.8928 58.393C66.256 58.3323 66.6272 58.3512 66.9831 58.4482ZM68.2076 39.3533C68.7344 39.3539 69.2491 39.518 69.6862 39.8249L70.3221 40.2673C70.6182 40.4734 70.8721 40.739 71.0689 41.0487C71.2657 41.3583 71.4014 41.7057 71.4682 42.0707C71.5349 42.4357 71.5313 42.8108 71.4577 43.1744C71.384 43.5379 71.2417 43.8824 71.0391 44.1879L64.1463 54.5806C63.774 55.1428 63.2081 55.5331 62.5667 55.67C61.9253 55.807 61.258 55.6801 60.7041 55.3157C60.1503 54.9513 59.7527 54.3777 59.5943 53.7146C59.436 53.0516 59.5291 52.3502 59.8544 51.7571L65.872 40.7647C66.0531 40.4305 66.2987 40.1393 66.5933 39.9095C66.888 39.6796 67.2251 39.5163 67.5835 39.4297C67.788 39.3791 67.9975 39.3535 68.2078 39.3533H68.2076ZM66.4993 28.6379C66.7955 28.844 67.0493 29.1096 67.2461 29.4193C67.4429 29.7289 67.5786 30.0763 67.6453 30.4413C67.712 30.8063 67.7085 31.1815 67.6348 31.545C67.5611 31.9085 67.4188 32.2531 67.2162 32.5585L60.3234 42.9512C59.9509 43.5129 59.3851 43.9027 58.7439 44.0395C58.1027 44.1762 57.4357 44.0492 56.8821 43.6849C56.3284 43.3207 55.9309 42.7474 55.7725 42.0846C55.614 41.4218 55.7068 40.7208 56.0316 40.1277L62.0493 29.1353C62.2316 28.8021 62.4776 28.5117 62.772 28.282C63.0664 28.0523 63.4029 27.8883 63.7607 27.8001C64.1184 27.7119 64.4896 27.7015 64.8514 27.7694C65.2131 27.8374 65.5576 27.9822 65.8635 28.195L66.4993 28.6379ZM62.0494 13.0822C62.2317 12.7491 62.4777 12.4587 62.7722 12.229C63.0666 11.9993 63.4031 11.8352 63.7608 11.7471C64.1185 11.6589 64.4898 11.6484 64.8515 11.7164C65.2133 11.7843 65.5578 11.9292 65.8636 12.142L66.4994 12.5844C66.7956 12.7905 67.0495 13.0561 67.2463 13.3657C67.443 13.6754 67.5787 14.0228 67.6455 14.3878C67.7122 14.7528 67.7086 15.1279 67.6349 15.4915C67.5613 15.855 67.4189 16.1995 67.2163 16.505L60.3235 26.8977C59.9511 27.4594 59.3852 27.8492 58.7441 27.9859C58.1029 28.1226 57.4359 27.9956 56.8822 27.6314C56.3286 27.2672 55.9311 26.6939 55.7726 26.0311C55.6142 25.3683 55.707 24.6673 56.0318 24.0742L62.0494 13.0822Z" fill="black" fill-opacity="0.04"/>
</svg>
