<svg width="359" height="756" viewBox="0 0 359 756" fill="none" xmlns="http://www.w3.org/2000/svg">
<mask id="mask0_1_175" style="mask-type:luminance" maskUnits="userSpaceOnUse" x="0" y="-1" width="359" height="757">
<path fill-rule="evenodd" clip-rule="evenodd" d="M37.5362 -0.00119019H321.464C342.194 -0.00119019 359 16.7912 359 37.5056V718.397C359 739.112 342.194 755.904 321.464 755.904H37.5362C16.8055 755.904 0 739.112 0 718.397V37.5056C0 16.7912 16.8055 -0.00119019 37.5362 -0.00119019Z" fill="white"/>
</mask>
<g mask="url(#mask0_1_175)">
<g filter="url(#filter0_d_1_175)">
<g clip-path="url(#clip0_1_175)">
<rect x="-3" y="1" width="363" height="755.905" rx="30" fill="white"/>
<path d="M38.6309 -102.996C40.4916 -106.385 44.679 -107.506 47.9837 -105.499L515.72 178.454C519.025 180.46 520.195 184.834 518.335 188.223L367.174 463.522C365.273 466.985 360.109 464.83 360.932 460.917C381.242 364.373 301.349 274.663 206.888 287.945L112.128 301.269C24.4565 308.468 -61.9075 270.053 -118.519 198.676L-123.215 192.755C-123.408 192.511 -123.439 192.172 -123.291 191.902L38.6309 -102.996Z" fill="#BBDEFB"/>
<path d="M-104 -59.0803C-104 -62.9463 -100.866 -66.0803 -97 -66.0803H380C383.866 -66.0803 387 -62.9463 387 -59.0803V215.438C387 218.895 382.125 219.628 381.109 216.322C356.026 134.708 256.733 103.836 189.794 156.84L122.821 209.872C58.5685 255.192 -23.9747 265.703 -97.5343 237.932L-103.583 235.648C-103.834 235.554 -104 235.314 -104 235.046V-59.0803Z" fill="#1565C0"/>
<path d="M400.479 922.128C400.214 925.985 396.875 928.875 393.02 928.583L-83.6171 892.468C-87.4721 892.176 -90.3829 888.812 -90.1185 884.956L-71.3498 611.08C-71.113 607.625 -66.1943 607.261 -65.4042 610.64C-45.9069 694.026 51.0487 732.373 121.533 684.577L192.232 636.634C259.546 596.276 342.69 592.032 414.276 625.3L420.212 628.059C420.456 628.172 420.606 628.425 420.588 628.694L400.479 922.128Z" fill="#1565C0"/>
<path d="M76.568 484.34C76.664 484.028 76.832 483.8 77.072 483.656C77.312 483.488 77.576 483.404 77.864 483.404C78.248 483.404 78.572 483.524 78.836 483.764C79.124 483.98 79.268 484.28 79.268 484.664C79.268 484.832 79.232 485.024 79.16 485.24L71.024 508.172C70.904 508.508 70.7 508.772 70.412 508.964C70.124 509.132 69.8 509.216 69.44 509.216C69.104 509.216 68.792 509.132 68.504 508.964C68.216 508.772 68.012 508.508 67.892 508.172L60.836 488.228L53.708 508.172C53.588 508.508 53.384 508.772 53.096 508.964C52.808 509.132 52.496 509.216 52.16 509.216C51.824 509.216 51.512 509.132 51.224 508.964C50.936 508.772 50.732 508.508 50.612 508.172L42.44 485.24C42.368 485.048 42.332 484.868 42.332 484.7C42.332 484.316 42.476 484.004 42.764 483.764C43.076 483.524 43.424 483.404 43.808 483.404C44.096 483.404 44.36 483.488 44.6 483.656C44.864 483.8 45.044 484.028 45.14 484.34L52.232 504.788L59.432 484.556C59.552 484.196 59.744 483.932 60.008 483.764C60.272 483.572 60.56 483.476 60.872 483.476C61.184 483.476 61.472 483.572 61.736 483.764C62 483.956 62.192 484.232 62.312 484.592L69.404 504.86L76.568 484.34ZM91.4664 509.288C89.6664 509.288 87.9384 509.024 86.2824 508.496C84.6504 507.944 83.3424 507.212 82.3584 506.3C81.9984 505.964 81.8184 505.544 81.8184 505.04C81.8184 504.704 81.9144 504.416 82.1064 504.176C82.2984 503.912 82.5264 503.78 82.7904 503.78C83.1024 503.78 83.4384 503.912 83.7984 504.176C86.0304 505.904 88.5744 506.768 91.4304 506.768C93.4944 506.768 95.0784 506.372 96.1824 505.58C97.2864 504.788 97.8384 503.66 97.8384 502.196C97.8384 501.356 97.5744 500.684 97.0464 500.18C96.5184 499.652 95.8224 499.232 94.9584 498.92C94.0944 498.608 92.9304 498.284 91.4664 497.948C89.4984 497.492 87.8784 497.012 86.6064 496.508C85.3584 496.004 84.3384 495.284 83.5464 494.348C82.7784 493.412 82.3944 492.188 82.3944 490.676C82.3944 489.236 82.7784 487.964 83.5464 486.86C84.3384 485.732 85.4304 484.868 86.8224 484.268C88.2384 483.644 89.8464 483.332 91.6464 483.332C93.3264 483.332 94.8864 483.596 96.3264 484.124C97.7904 484.628 99.0144 485.36 99.9984 486.32C100.382 486.704 100.574 487.124 100.574 487.58C100.574 487.916 100.478 488.216 100.286 488.48C100.094 488.72 99.8664 488.84 99.6024 488.84C99.3384 488.84 98.9904 488.708 98.5584 488.444C97.3824 487.484 96.2904 486.812 95.2824 486.428C94.2744 486.044 93.0624 485.852 91.6464 485.852C89.6544 485.852 88.1064 486.272 87.0024 487.112C85.8984 487.928 85.3464 489.08 85.3464 490.568C85.3464 491.84 85.8264 492.8 86.7864 493.448C87.7704 494.072 89.2704 494.624 91.2864 495.104C93.4704 495.632 95.1864 496.124 96.4344 496.58C97.6824 497.012 98.7144 497.672 99.5304 498.56C100.37 499.448 100.79 500.636 100.79 502.124C100.79 503.54 100.394 504.788 99.6024 505.868C98.8344 506.948 97.7424 507.788 96.3264 508.388C94.9104 508.988 93.2904 509.288 91.4664 509.288ZM124.953 507.164C125.121 507.428 125.205 507.704 125.205 507.992C125.205 508.352 125.061 508.652 124.773 508.892C124.509 509.108 124.197 509.216 123.837 509.216C123.285 509.216 122.853 508.976 122.541 508.496L117.717 500.864C117.093 499.88 116.445 499.208 115.773 498.848C115.101 498.464 114.189 498.272 113.037 498.272H108.501V507.668C108.501 508.124 108.369 508.496 108.105 508.784C107.841 509.048 107.493 509.18 107.061 509.18C106.605 509.18 106.245 509.048 105.981 508.784C105.717 508.496 105.585 508.124 105.585 507.668V485.06C105.585 484.628 105.717 484.28 105.981 484.016C106.269 483.752 106.641 483.62 107.097 483.62H116.025C118.785 483.62 120.885 484.232 122.325 485.456C123.789 486.68 124.521 488.48 124.521 490.856C124.521 492.872 123.933 494.492 122.757 495.716C121.605 496.94 119.949 497.684 117.789 497.948C118.389 498.14 118.929 498.452 119.409 498.884C119.889 499.316 120.369 499.916 120.849 500.684L124.953 507.164ZM115.773 495.824C117.741 495.824 119.205 495.416 120.165 494.6C121.149 493.784 121.641 492.548 121.641 490.892C121.641 489.26 121.161 488.048 120.201 487.256C119.241 486.464 117.765 486.068 115.773 486.068H108.501V495.824H115.773ZM54.896 558.288C52.496 558.288 50.42 557.772 48.668 556.74C46.916 555.684 45.56 554.184 44.6 552.24C43.664 550.272 43.196 547.956 43.196 545.292C43.196 542.652 43.664 540.36 44.6 538.416C45.56 536.448 46.916 534.948 48.668 533.916C50.42 532.86 52.496 532.332 54.896 532.332C56.504 532.332 58.016 532.596 59.432 533.124C60.872 533.628 62.12 534.36 63.176 535.32C63.56 535.68 63.752 536.1 63.752 536.58C63.752 536.916 63.656 537.216 63.464 537.48C63.272 537.72 63.044 537.84 62.78 537.84C62.492 537.84 62.144 537.708 61.736 537.444C60.512 536.484 59.396 535.812 58.388 535.428C57.404 535.044 56.264 534.852 54.968 534.852C52.184 534.852 50.036 535.764 48.524 537.588C47.036 539.388 46.292 541.956 46.292 545.292C46.292 548.652 47.036 551.244 48.524 553.068C50.036 554.868 52.184 555.768 54.968 555.768C56.24 555.768 57.38 555.576 58.388 555.192C59.396 554.808 60.512 554.136 61.736 553.176C62.144 552.912 62.492 552.78 62.78 552.78C63.044 552.78 63.272 552.9 63.464 553.14C63.656 553.38 63.752 553.68 63.752 554.04C63.752 554.52 63.56 554.94 63.176 555.3C62.12 556.26 60.872 557.004 59.432 557.532C58.016 558.036 56.504 558.288 54.896 558.288ZM74.9837 558.252C73.3277 558.252 71.8637 557.88 70.5917 557.136C69.3437 556.392 68.3717 555.336 67.6757 553.968C67.0037 552.576 66.6677 550.968 66.6677 549.144C66.6677 547.32 67.0037 545.724 67.6757 544.356C68.3717 542.964 69.3437 541.896 70.5917 541.152C71.8637 540.408 73.3277 540.036 74.9837 540.036C76.6397 540.036 78.1037 540.408 79.3757 541.152C80.6477 541.896 81.6197 542.964 82.2917 544.356C82.9877 545.724 83.3357 547.32 83.3357 549.144C83.3357 550.968 82.9877 552.576 82.2917 553.968C81.6197 555.336 80.6477 556.392 79.3757 557.136C78.1037 557.88 76.6397 558.252 74.9837 558.252ZM74.9837 555.84C76.7117 555.84 78.0317 555.276 78.9437 554.148C79.8797 552.996 80.3477 551.328 80.3477 549.144C80.3477 547.008 79.8797 545.364 78.9437 544.212C78.0077 543.036 76.6877 542.448 74.9837 542.448C73.2797 542.448 71.9597 543.036 71.0237 544.212C70.0877 545.364 69.6197 547.008 69.6197 549.144C69.6197 551.304 70.0757 552.96 70.9877 554.112C71.9237 555.264 73.2557 555.84 74.9837 555.84ZM96.5005 540.036C100.7 540.036 102.8 542.352 102.8 546.984V556.74C102.8 557.196 102.668 557.556 102.404 557.82C102.164 558.06 101.816 558.18 101.36 558.18C100.904 558.18 100.544 558.06 100.28 557.82C100.016 557.556 99.8845 557.196 99.8845 556.74V547.164C99.8845 545.532 99.5605 544.344 98.9125 543.6C98.2885 542.856 97.2805 542.484 95.8885 542.484C94.2805 542.484 92.9965 542.976 92.0365 543.96C91.0765 544.944 90.5965 546.276 90.5965 547.956V556.74C90.5965 557.196 90.4645 557.556 90.2005 557.82C89.9605 558.06 89.6125 558.18 89.1565 558.18C88.7005 558.18 88.3405 558.06 88.0765 557.82C87.8125 557.556 87.6805 557.196 87.6805 556.74V541.548C87.6805 541.116 87.8125 540.768 88.0765 540.504C88.3405 540.24 88.7005 540.108 89.1565 540.108C89.5885 540.108 89.9245 540.24 90.1645 540.504C90.4285 540.768 90.5605 541.104 90.5605 541.512V543.348C91.1365 542.268 91.9405 541.452 92.9725 540.9C94.0045 540.324 95.1805 540.036 96.5005 540.036ZM116.961 540.036C121.161 540.036 123.261 542.352 123.261 546.984V556.74C123.261 557.196 123.129 557.556 122.865 557.82C122.625 558.06 122.277 558.18 121.821 558.18C121.365 558.18 121.005 558.06 120.741 557.82C120.477 557.556 120.345 557.196 120.345 556.74V547.164C120.345 545.532 120.021 544.344 119.373 543.6C118.749 542.856 117.741 542.484 116.349 542.484C114.741 542.484 113.457 542.976 112.497 543.96C111.537 544.944 111.057 546.276 111.057 547.956V556.74C111.057 557.196 110.925 557.556 110.661 557.82C110.421 558.06 110.073 558.18 109.617 558.18C109.161 558.18 108.801 558.06 108.537 557.82C108.273 557.556 108.141 557.196 108.141 556.74V541.548C108.141 541.116 108.273 540.768 108.537 540.504C108.801 540.24 109.161 540.108 109.617 540.108C110.049 540.108 110.385 540.24 110.625 540.504C110.889 540.768 111.021 541.104 111.021 541.512V543.348C111.597 542.268 112.401 541.452 113.433 540.9C114.465 540.324 115.641 540.036 116.961 540.036ZM142.174 553.932C142.438 553.932 142.666 554.04 142.858 554.256C143.05 554.472 143.146 554.748 143.146 555.084C143.146 555.684 142.726 556.236 141.886 556.74C141.022 557.244 140.11 557.628 139.15 557.892C138.19 558.132 137.254 558.252 136.342 558.252C133.63 558.252 131.482 557.448 129.898 555.84C128.338 554.232 127.558 552.012 127.558 549.18C127.558 547.38 127.906 545.796 128.602 544.428C129.298 543.036 130.27 541.956 131.518 541.188C132.79 540.42 134.23 540.036 135.838 540.036C138.118 540.036 139.93 540.78 141.274 542.268C142.618 543.756 143.29 545.772 143.29 548.316C143.29 548.796 143.194 549.144 143.002 549.36C142.81 549.576 142.498 549.684 142.066 549.684H130.474C130.69 553.812 132.646 555.876 136.342 555.876C137.278 555.876 138.082 555.756 138.754 555.516C139.426 555.252 140.146 554.904 140.914 554.472C141.538 554.112 141.958 553.932 142.174 553.932ZM135.874 542.304C134.338 542.304 133.102 542.784 132.166 543.744C131.254 544.704 130.714 546.06 130.546 547.812H140.734C140.686 546.036 140.242 544.68 139.402 543.744C138.562 542.784 137.386 542.304 135.874 542.304ZM154.823 558.252C153.191 558.252 151.739 557.88 150.467 557.136C149.219 556.392 148.247 555.336 147.551 553.968C146.879 552.6 146.543 551.016 146.543 549.216C146.543 547.416 146.891 545.82 147.587 544.428C148.307 543.036 149.303 541.956 150.575 541.188C151.847 540.42 153.311 540.036 154.967 540.036C155.879 540.036 156.779 540.168 157.667 540.432C158.579 540.672 159.371 541.032 160.043 541.512C160.475 541.8 160.775 542.088 160.943 542.376C161.135 542.64 161.231 542.94 161.231 543.276C161.231 543.612 161.135 543.888 160.943 544.104C160.775 544.32 160.547 544.428 160.259 544.428C160.091 544.428 159.911 544.38 159.719 544.284C159.527 544.188 159.359 544.092 159.215 543.996C159.095 543.9 159.011 543.84 158.963 543.816C158.339 543.408 157.739 543.084 157.163 542.844C156.611 542.604 155.927 542.484 155.111 542.484C153.359 542.484 151.991 543.084 151.007 544.284C150.047 545.46 149.567 547.104 149.567 549.216C149.567 551.328 150.047 552.96 151.007 554.112C151.991 555.264 153.359 555.84 155.111 555.84C155.927 555.84 156.623 555.72 157.199 555.48C157.799 555.24 158.399 554.916 158.999 554.508C159.263 554.34 159.515 554.196 159.755 554.076C159.995 553.956 160.199 553.896 160.367 553.896C160.631 553.896 160.847 554.004 161.015 554.22C161.207 554.436 161.303 554.712 161.303 555.048C161.303 555.36 161.219 555.648 161.051 555.912C160.883 556.152 160.571 556.428 160.115 556.74C159.443 557.196 158.627 557.568 157.667 557.856C156.731 558.12 155.783 558.252 154.823 558.252ZM172.948 555.876C173.788 555.948 174.208 556.332 174.208 557.028C174.208 557.436 174.052 557.748 173.74 557.964C173.452 558.156 173.008 558.228 172.408 558.18L171.436 558.108C169.516 557.964 168.1 557.388 167.188 556.38C166.276 555.372 165.82 553.848 165.82 551.808V542.772H163.408C163 542.772 162.676 542.676 162.436 542.484C162.22 542.268 162.112 541.992 162.112 541.656C162.112 541.296 162.22 541.008 162.436 540.792C162.676 540.576 163 540.468 163.408 540.468H165.82V536.4C165.82 535.944 165.952 535.596 166.216 535.356C166.48 535.092 166.84 534.96 167.296 534.96C167.728 534.96 168.076 535.092 168.34 535.356C168.604 535.596 168.736 535.944 168.736 536.4V540.468H172.732C173.116 540.468 173.416 540.576 173.632 540.792C173.872 541.008 173.992 541.296 173.992 541.656C173.992 541.992 173.872 542.268 173.632 542.484C173.416 542.676 173.116 542.772 172.732 542.772H168.736V551.952C168.736 553.272 169 554.232 169.528 554.832C170.08 555.408 170.896 555.732 171.976 555.804L172.948 555.876Z" fill="#1565C0"/>
<path d="M93.3684 443V436.5L106 424.8L102.211 417L100.947 407.9L104.737 392.3L99.6842 387.1L103.474 378L91.3158 383.362L58 413.1V443H93.3684Z" fill="#42A5F5"/>
<path d="M54 361H93V423H54V361Z" fill="#0D47A1"/>
<path d="M99.7281 417.656L89.711 424.594C88.8943 425.16 88.3144 426.05 88.0956 427.074C87.8769 428.098 88.0367 429.174 88.5408 430.072C89.0303 430.943 89.8073 431.58 90.7139 431.853C91.6206 432.127 92.5892 432.015 93.423 431.542L103.938 425.577C104.39 425.32 104.791 424.968 105.116 424.542C105.442 424.115 105.686 423.623 105.834 423.093C105.983 422.563 106.032 422.007 105.98 421.456C105.928 420.905 105.775 420.371 105.53 419.885L105.172 419.172C104.919 418.67 104.574 418.23 104.158 417.879C103.742 417.528 103.264 417.273 102.754 417.131C102.243 416.989 101.711 416.962 101.191 417.052C100.67 417.142 100.172 417.348 99.7281 417.656Z" fill="#64B5F6"/>
<path d="M100.749 400.069L94.5161 411.083C94.0078 411.981 93.8683 413.044 94.1273 414.045C94.3863 415.046 95.0232 415.904 95.9016 416.436C96.7546 416.953 97.7703 417.123 98.7426 416.911C99.7149 416.699 100.571 416.122 101.137 415.296L108.277 404.882C108.584 404.434 108.8 403.929 108.912 403.396C109.024 402.863 109.029 402.312 108.928 401.777C108.827 401.242 108.621 400.732 108.323 400.278C108.024 399.824 107.639 399.434 107.19 399.132L106.532 398.689C106.068 398.377 105.545 398.164 104.997 398.065C104.449 397.965 103.886 397.981 103.343 398.11C102.801 398.24 102.291 398.48 101.845 398.817C101.398 399.154 101.026 399.58 100.749 400.069Z" fill="#64B5F6"/>
<path opacity="0.3" d="M56 361L92 421V361H56Z" fill="#E3F2FD"/>
<path d="M96.7494 388.068L90.5161 399.083C90.0078 399.981 89.8683 401.044 90.1273 402.045C90.3863 403.046 91.0232 403.904 91.9016 404.436C92.7546 404.953 93.7703 405.123 94.7426 404.911C95.7149 404.699 96.5711 404.122 97.1373 403.296L104.277 392.883C104.584 392.435 104.8 391.929 104.912 391.396C105.024 390.863 105.029 390.313 104.928 389.777C104.827 389.242 104.621 388.732 104.323 388.278C104.024 387.824 103.639 387.435 103.19 387.132L102.532 386.689C102.068 386.377 101.546 386.164 100.997 386.065C100.449 385.965 99.886 385.981 99.3437 386.11C98.8014 386.239 98.2913 386.48 97.845 386.817C97.3987 387.154 97.0258 387.579 96.7494 388.068Z" fill="#64B5F6"/>
<path d="M96.7495 372.068L90.5161 383.083C90.0078 383.981 89.8683 385.044 90.1273 386.045C90.3863 387.046 91.0233 387.904 91.9017 388.436C92.7546 388.953 93.7703 389.123 94.7427 388.911C95.715 388.699 96.5712 388.122 97.1374 387.296L104.277 376.882C104.585 376.434 104.8 375.929 104.912 375.396C105.024 374.863 105.029 374.313 104.928 373.778C104.827 373.242 104.621 372.733 104.323 372.279C104.025 371.825 103.64 371.435 103.191 371.133L102.532 370.689C102.069 370.377 101.546 370.165 100.998 370.065C100.449 369.965 99.8865 369.98 99.3442 370.11C98.8019 370.239 98.2916 370.48 97.8453 370.816C97.3989 371.153 97.0259 371.579 96.7495 372.068Z" fill="#64B5F6"/>
<path d="M88 374H76.75L73 378V366H88V374Z" fill="#1E88E5"/>
<path d="M75 392C77.7614 392 80 389.761 80 387C80 384.239 77.7614 382 75 382C72.2386 382 70 384.239 70 387C70 389.761 72.2386 392 75 392Z" fill="#64B5F6"/>
<path d="M87 415V407.108C87 401.525 81.6924 397 77.3846 397H71.6154C67.3076 397 62 401.525 62 407.108V415H87Z" fill="#E3F2FD"/>
<path d="M58 366H67V375H58V366Z" fill="#E3F2FD"/>
<path d="M58 443V433.87L43 419.522V383C54.25 383 54.25 393.435 54.25 393.435V410.391C73 412.837 78 429.957 78 429.957V443H58Z" fill="#64B5F6"/>
<path d="M87.7143 365H72.2857C71.9447 365 71.6177 365.134 71.3766 365.373C71.1355 365.611 71 365.935 71 366.273V377.727C71 377.979 71.0754 378.225 71.2167 378.434C71.3579 378.644 71.5587 378.807 71.7937 378.903C72.0286 378.999 72.2871 379.025 72.5366 378.976C72.786 378.926 73.0151 378.805 73.1949 378.627L76.6753 375.182H87.7143C88.0553 375.182 88.3823 375.048 88.6234 374.809C88.8645 374.57 89 374.247 89 373.909V366.273C89 365.935 88.8645 365.611 88.6234 365.373C88.3823 365.134 88.0553 365 87.7143 365ZM86.4286 372.636H76.1429C75.974 372.636 75.8068 372.669 75.6508 372.733C75.4948 372.797 75.3531 372.891 75.2337 373.009L73.5714 374.655V367.545H86.4286V372.636Z" fill="black" fill-opacity="0.04"/>
<path d="M74 394C75.1867 394 76.3467 393.619 77.3334 392.905C78.3201 392.19 79.0892 391.175 79.5433 389.987C79.9974 388.8 80.1162 387.493 79.8847 386.232C79.6532 384.971 79.0818 383.813 78.2426 382.904C77.4035 381.995 76.3344 381.376 75.1705 381.125C74.0067 380.874 72.8003 381.003 71.7039 381.495C70.6075 381.987 69.6705 382.82 69.0112 383.889C68.3519 384.958 68 386.214 68 387.5C68.0018 389.223 68.6345 390.875 69.7593 392.094C70.8842 393.313 72.4093 393.998 74 394ZM74 383.681C74.6972 383.681 75.3787 383.905 75.9584 384.325C76.538 384.744 76.9899 385.341 77.2567 386.038C77.5235 386.736 77.5933 387.504 77.4573 388.245C77.3213 388.986 76.9856 389.666 76.4926 390.2C75.9996 390.734 75.3716 391.098 74.6878 391.245C74.004 391.393 73.2953 391.317 72.6511 391.028C72.007 390.739 71.4565 390.25 71.0691 389.622C70.6818 388.994 70.475 388.255 70.475 387.5C70.476 386.488 70.8477 385.517 71.5086 384.801C72.1694 384.085 73.0654 383.682 74 383.681Z" fill="black" fill-opacity="0.04"/>
<path d="M77.9372 395H72.0628C67.052 395 61 400.012 61 406.237H63.544C63.544 401.579 68.228 397.588 72.0628 397.588H77.9372C82.525 397.588 86.456 402.343 86.456 406.237V414H89V406.237C89 400.012 82.948 395 77.9372 395Z" fill="black" fill-opacity="0.04"/>
<path d="M67 375.667V366.333C67 365.98 66.8712 365.641 66.642 365.391C66.4128 365.14 66.1019 365 65.7778 365H57.2222C56.8981 365 56.5872 365.14 56.358 365.391C56.1288 365.641 56 365.98 56 366.333V375.667C56 376.02 56.1288 376.359 56.358 376.609C56.5872 376.86 56.8981 377 57.2222 377H65.7778C66.1019 377 66.4128 376.86 66.642 376.609C66.8712 376.359 67 376.02 67 375.667ZM64.5556 374.333H58.4444V367.667H64.5556V374.333Z" fill="black" fill-opacity="0.04"/>
<path d="M91.9392 360H53.4242C53.0947 360 52.7787 360.137 52.5457 360.38C52.3127 360.623 52.1818 360.953 52.1818 361.297V386.449C50.4837 384.2 47.4887 382.047 42.2424 382.047C41.9129 382.047 41.5969 382.184 41.3639 382.427C41.1309 382.67 41 383 41 383.344V419.656C40.9999 419.836 41.0357 420.014 41.1051 420.179C41.1744 420.343 41.2758 420.491 41.4029 420.613L55.909 434.492V443H58.3939V433.922C58.3939 433.742 58.3582 433.564 58.2888 433.399C58.2194 433.235 58.118 433.087 57.991 432.965L43.4848 419.086V384.689C46.9489 384.967 49.4393 386.442 50.8984 389.085C51.6633 390.505 52.1026 392.091 52.1818 393.719V410.578C52.1818 410.894 52.2924 411.199 52.4928 411.436C52.6932 411.673 52.9696 411.826 53.2701 411.865C60.635 412.826 66.6643 416.221 71.1902 421.956C74.5953 426.271 75.8301 430.37 75.8422 430.411L78.2184 429.653C78.1827 429.531 77.5903 427.546 76.1084 424.844H86.9061C86.3774 425.629 86.0659 426.552 86.0055 427.51C85.9451 428.468 86.1382 429.425 86.5637 430.276C86.9893 431.127 87.6308 431.84 88.4183 432.336C89.2057 432.832 90.1087 433.093 91.0285 433.09C91.8357 433.09 92.631 432.886 93.3461 432.495L95.7714 431.17L91.1077 435.552C90.9783 435.673 90.8749 435.822 90.8041 435.988C90.7333 436.154 90.6967 436.334 90.6968 436.516V443H93.1816V437.093L104.979 426.01C105.901 425.211 106.529 424.103 106.755 422.874C106.98 421.646 106.79 420.374 106.216 419.276L105.85 418.575C105.412 417.734 104.767 417.031 103.981 416.538C103.195 416.044 102.297 415.779 101.38 415.769L108.082 405.664C108.472 405.076 108.746 404.412 108.888 403.711C109.03 403.011 109.037 402.288 108.908 401.585C108.78 400.882 108.518 400.212 108.139 399.616C107.76 399.019 107.271 398.507 106.7 398.11L106.064 397.668C104.988 396.922 103.684 396.623 102.408 396.828L104.259 394.036C104.649 393.448 104.924 392.784 105.065 392.083C105.207 391.383 105.214 390.66 105.086 389.956C104.957 389.253 104.695 388.583 104.316 387.987C103.937 387.39 103.448 386.878 102.877 386.481L102.241 386.039C101.431 385.477 100.486 385.164 99.5139 385.137L104.259 377.983C104.649 377.394 104.923 376.73 105.065 376.03C105.207 375.329 105.214 374.606 105.085 373.903C104.956 373.199 104.695 372.53 104.316 371.933C103.936 371.337 103.447 370.825 102.876 370.428L102.242 369.984C101.653 369.574 100.989 369.295 100.292 369.164C99.5948 369.033 98.8794 369.053 98.1901 369.223C97.5008 369.393 96.8523 369.709 96.2849 370.151C95.7176 370.594 95.2435 371.154 94.8921 371.795L93.1816 374.92V361.297C93.1816 360.953 93.0507 360.623 92.8177 360.38C92.5847 360.137 92.2687 360 91.9392 360V360ZM73.1776 420.396C69.8998 416.212 64.0607 411 54.6666 409.452V362.594H90.6968V379.459L88.8744 382.788C88.2298 383.981 88.0548 385.388 88.3864 386.713C88.718 388.037 89.5303 389.176 90.6514 389.886C91.429 390.374 92.3191 390.631 93.2262 390.631C93.2748 390.631 93.3232 390.627 93.3718 390.626L88.8744 398.841C88.2298 400.034 88.0548 401.441 88.3864 402.766C88.718 404.091 89.5303 405.229 90.6514 405.94C90.6669 405.949 90.6825 405.956 90.6968 405.966V421.84L90.0816 422.25H74.5262C74.1168 421.644 73.6689 421.023 73.1776 420.396ZM93.1816 416.4C93.9249 417.352 94.9678 417.997 96.1244 418.222L93.1816 420.183V416.4ZM93.1816 409.585V406.682C93.1971 406.682 93.2113 406.684 93.2262 406.684C93.811 406.683 94.3913 406.577 94.9415 406.37L93.1816 409.585ZM101.983 418.448C102.34 418.542 102.674 418.712 102.964 418.948C103.254 419.184 103.494 419.48 103.669 419.818L104.035 420.519C104.318 421.059 104.421 421.681 104.331 422.289C104.24 422.897 103.96 423.457 103.533 423.881L103.532 423.88L103.366 424.036C103.229 424.152 103.081 424.253 102.924 424.338L92.1947 430.197C91.6148 430.514 90.9401 430.585 90.3114 430.395C89.6827 430.205 89.1486 429.769 88.8205 429.178C88.4923 428.587 88.3956 427.886 88.5504 427.222C88.7052 426.558 89.0996 425.983 89.6513 425.615L99.8734 418.8C100.182 418.592 100.53 418.454 100.893 418.393C101.256 418.332 101.627 418.351 101.983 418.448ZM103.208 399.353C103.734 399.354 104.249 399.518 104.686 399.825L105.322 400.267C105.618 400.473 105.872 400.739 106.069 401.049C106.266 401.358 106.401 401.706 106.468 402.071C106.535 402.436 106.531 402.811 106.458 403.174C106.384 403.538 106.242 403.882 106.039 404.188L99.1463 414.581C98.774 415.143 98.2081 415.533 97.5667 415.67C96.9253 415.807 96.258 415.68 95.7041 415.316C95.1503 414.951 94.7527 414.378 94.5943 413.715C94.436 413.052 94.5291 412.35 94.8544 411.757L100.872 400.765C101.053 400.431 101.299 400.139 101.593 399.909C101.888 399.68 102.225 399.516 102.583 399.43C102.788 399.379 102.998 399.353 103.208 399.353H103.208ZM101.499 388.638C101.795 388.844 102.049 389.11 102.246 389.419C102.443 389.729 102.579 390.076 102.645 390.441C102.712 390.806 102.708 391.181 102.635 391.545C102.561 391.909 102.419 392.253 102.216 392.559L95.3234 402.951C94.9509 403.513 94.3851 403.903 93.7439 404.039C93.1027 404.176 92.4357 404.049 91.8821 403.685C91.3284 403.321 90.9309 402.747 90.7725 402.085C90.614 401.422 90.7068 400.721 91.0316 400.128L97.0493 389.135C97.2316 388.802 97.4776 388.512 97.772 388.282C98.0664 388.052 98.4029 387.888 98.7607 387.8C99.1184 387.712 99.4896 387.701 99.8514 387.769C100.213 387.837 100.558 387.982 100.863 388.195L101.499 388.638ZM97.0494 373.082C97.2317 372.749 97.4777 372.459 97.7722 372.229C98.0666 371.999 98.4031 371.835 98.7608 371.747C99.1185 371.659 99.4898 371.648 99.8515 371.716C100.213 371.784 100.558 371.929 100.864 372.142L101.499 372.584C101.796 372.79 102.049 373.056 102.246 373.366C102.443 373.675 102.579 374.023 102.645 374.388C102.712 374.753 102.709 375.128 102.635 375.491C102.561 375.855 102.419 376.2 102.216 376.505L95.3235 386.898C94.9511 387.459 94.3852 387.849 93.7441 387.986C93.1029 388.123 92.4359 387.996 91.8822 387.631C91.3286 387.267 90.9311 386.694 90.7726 386.031C90.6142 385.368 90.707 384.667 91.0318 384.074L97.0494 373.082Z" fill="black" fill-opacity="0.04"/>
</g>
</g>
</g>
<defs>
<filter id="filter0_d_1_175" x="-33" y="-29" width="443" height="835.905" filterUnits="userSpaceOnUse" color-interpolation-filters="sRGB">
<feFlood flood-opacity="0" result="BackgroundImageFix"/>
<feColorMatrix in="SourceAlpha" type="matrix" values="0 0 0 0 0 0 0 0 0 0 0 0 0 0 0 0 0 0 127 0" result="hardAlpha"/>
<feOffset dx="10" dy="10"/>
<feGaussianBlur stdDeviation="20"/>
<feColorMatrix type="matrix" values="0 0 0 0 0 0 0 0 0 0 0 0 0 0 0 0 0 0 0.3 0"/>
<feBlend mode="normal" in2="BackgroundImageFix" result="effect1_dropShadow_1_175"/>
<feBlend mode="normal" in="SourceGraphic" in2="effect1_dropShadow_1_175" result="shape"/>
</filter>
<clipPath id="clip0_1_175">
<rect x="-3" y="1" width="363" height="755.905" rx="30" fill="white"/>
</clipPath>
</defs>
</svg>
